<svg width="33" height="41" viewBox="0 0 33 41" fill="none" xmlns="http://www.w3.org/2000/svg">
<path d="M9.70536 31.3333H22.7634M9.70536 24.8333H22.7634M18.4115 1.00189C18.2036 1 17.9697 1 17.7028 1H7.96471C5.52698 1 4.30721 1 3.37612 1.47231C2.55711 1.88776 1.89172 2.55019 1.47441 3.36556C1 4.29251 1 5.50686 1 7.93376V33.0671C1 35.494 1 36.7068 1.47442 37.6338C1.89172 38.4491 2.55711 39.1127 3.37612 39.5282C4.30631 40 5.52462 40 7.95762 40L24.5112 40C26.9442 40 28.1607 40 29.0909 39.5282C29.9099 39.1127 30.5775 38.4491 30.9948 37.6337C31.4688 36.7077 31.4688 35.4966 31.4688 33.0744V14.7056C31.4688 14.4399 31.4685 14.207 31.4666 14M18.4115 1.00189C19.0328 1.00753 19.4243 1.03048 19.7996 1.12019C20.2437 1.22634 20.6694 1.40141 21.0589 1.639C21.498 1.90689 21.875 2.28226 22.6274 3.03125L29.4295 9.80313C30.1823 10.5526 30.5566 10.9263 30.8258 11.3636C31.0644 11.7513 31.241 12.1741 31.3476 12.6162C31.4377 12.9899 31.461 13.3815 31.4666 14M18.4115 1.00189L18.4107 7.06712C18.4107 9.49401 18.4107 10.707 18.8851 11.6339C19.3024 12.4493 19.9678 13.1127 20.7868 13.5282C21.717 14 22.9353 14 25.3683 14H31.4666" stroke="#035AA6" stroke-width="2" stroke-linecap="round" stroke-linejoin="round"/>
</svg>
