<svg width="21" height="14" viewBox="0 0 21 14" fill="none" xmlns="http://www.w3.org/2000/svg">
<g id="Vector">
<path d="M1.94924 8.77886C3.75778 10.5479 6.91182 13 10.5002 13C14.0886 13 17.2421 10.5479 19.0506 8.77886C19.5276 8.31231 19.7669 8.07824 19.9187 7.62016C20.0271 7.29333 20.0271 6.70678 19.9187 6.37994C19.7668 5.92184 19.5276 5.68773 19.0506 5.22114C17.242 3.4521 14.0886 1 10.5002 1C6.91182 1 3.75778 3.4521 1.94924 5.22114C1.4719 5.68806 1.23321 5.92168 1.08127 6.37994C0.972909 6.70677 0.972909 7.29333 1.08127 7.62016C1.23321 8.07842 1.4719 8.31194 1.94924 8.77886Z" stroke="#5E9FF2" stroke-opacity="0.5" stroke-width="1.5" stroke-linecap="round" stroke-linejoin="round"/>
<path d="M8.46732 7.00004C8.46732 8.10462 9.3774 9.00006 10.5 9.00006C11.6227 9.00006 12.5327 8.10462 12.5327 7.00004C12.5327 5.89546 11.6227 5.00003 10.5 5.00003C9.3774 5.00003 8.46732 5.89546 8.46732 7.00004Z" stroke="#5E9FF2" stroke-opacity="0.5" stroke-width="1.5" stroke-linecap="round" stroke-linejoin="round"/>
</g>
</svg>
