<svg width="22" height="19" viewBox="0 0 22 19" fill="none" xmlns="http://www.w3.org/2000/svg">
<path id="Vector" d="M2.44113 1L19.5585 18M15.8141 14.5531C14.367 15.3273 12.7315 15.8749 10.9998 15.8749C7.22261 15.8749 3.9029 13.2696 1.9992 11.39C1.49669 10.8938 1.24548 10.6458 1.08555 10.1589C0.9715 9.81161 0.971464 9.18823 1.08555 8.84097C1.24553 8.35406 1.49726 8.10542 2.00077 7.6084C2.96029 6.66122 4.27924 5.53007 5.83498 4.64093M19.0236 12.298C19.3799 11.9868 19.7062 11.6806 19.9991 11.3915L20.0022 11.3883C20.5035 10.8934 20.7549 10.6453 20.9145 10.1594C21.0286 9.81214 21.0284 9.18851 20.9143 8.84125C20.7545 8.35448 20.5029 8.10573 20.0008 7.60993C18.0971 5.73034 14.7771 3.125 10.9998 3.125C10.6388 3.125 10.2819 3.14881 9.92999 3.19351M12.4151 11.0938C12.0379 11.4244 11.5425 11.625 10.9998 11.625C9.81812 11.625 8.86015 10.6736 8.86015 9.5C8.86015 8.92678 9.08869 8.40677 9.4602 8.02454" stroke="#333333" stroke-opacity="0.5" stroke-width="1.5" stroke-linecap="round" stroke-linejoin="round"/>
</svg>
