<svg width="20" height="23" viewBox="0 0 20 23" fill="none" xmlns="http://www.w3.org/2000/svg">
<path id="Vector" d="M1 5.13235V17.3803C1 19.1378 1 20.0164 1.30618 20.5542C1.87367 21.5509 3.11736 22.1237 4.39551 21.9773C5.08511 21.8983 5.93445 21.4109 7.63315 20.436L7.63722 20.4337C8.31053 20.0473 8.64722 19.854 8.99943 19.7469C9.64631 19.55 10.3521 19.55 10.999 19.7469C11.3519 19.8543 11.69 20.0482 12.366 20.4362C14.0647 21.4111 14.915 21.8981 15.6046 21.9771C16.8827 22.1235 18.1264 21.5509 18.6938 20.5542C19 20.0165 19 19.1376 19 17.3803V5.1281C19 3.68456 19 2.96171 18.6733 2.40981C18.3857 1.92387 17.9256 1.52908 17.3611 1.28148C16.7194 1 15.8805 1 14.2003 1H5.80029C4.12014 1 3.27943 1 2.6377 1.28148C2.07321 1.52908 1.6146 1.92387 1.32698 2.40981C1 2.96225 1 3.68598 1 5.13235Z" stroke="#035AA6" stroke-width="1.5" stroke-linecap="round" stroke-linejoin="round"/>
</svg>
