<svg width="19" height="22" viewBox="0 0 19 22" fill="none" xmlns="http://www.w3.org/2000/svg">
<path id="Vector" d="M1 4.93819V16.5992C1 18.2724 1 19.1089 1.28917 19.6209C1.82513 20.5698 2.99973 21.1152 4.20687 20.9758C4.85816 20.9006 5.66032 20.4365 7.26464 19.5084L7.26849 19.5062C7.90439 19.1383 8.22238 18.9543 8.55502 18.8523C9.16596 18.6649 9.83258 18.6649 10.4435 18.8523C10.7768 18.9545 11.0961 19.1392 11.7345 19.5086C13.3389 20.4367 14.1419 20.9004 14.7932 20.9756C16.0003 21.115 17.1749 20.5698 17.7109 19.6209C18 19.109 18 18.2722 18 16.5992V4.93416C18 3.5598 18 2.8716 17.6915 2.34615C17.4198 1.8835 16.9853 1.50763 16.4521 1.2719C15.8461 1.00391 15.0538 1.00391 13.4669 1.00391H5.53361C3.94679 1.00391 3.1528 1.00391 2.54671 1.2719C2.01359 1.50763 1.58046 1.8835 1.30881 2.34615C1 2.87211 1 3.56115 1 4.93819Z" fill="#035AA6" stroke="#035AA6" stroke-width="2" stroke-linecap="round" stroke-linejoin="round"/>
</svg>
